HIERARCHY
ROOT hip
{
  OFFSET 0.0 0.0 0.0
  CHANNELS 6 Xposition Yposition Zposition Zrotation Yrotation Xrotation
  JOINT abdomen
  {
    OFFSET 0.0 20.6881 -0.73152
    CHANNELS 3 Zrotation Xrotation Yrotation
    JOINT chest
    {
      OFFSET 0.0 11.7043 -0.48768
      CHANNELS 3 Zrotation Xrotation Yrotation
      JOINT neck
      {
        OFFSET 0.0 22.1894 -2.19456
        CHANNELS 3 Zrotation Xrotation Yrotation
        JOINT head
        {
          OFFSET -0.24384 7.07133 1.2192
          CHANNELS 3 Zrotation Xrotation Yrotation
          JOINT leftEye
          {
            OFFSET 4.14528 8.04674 8.04672
            CHANNELS 3 Zrotation Xrotation Yrotation
            End Site
            {
              OFFSET 1.0 0.0 0.0
            }
          }
          JOINT rightEye
          {
            OFFSET -3.6576 8.04674 8.04672
            CHANNELS 3 Zrotation Xrotation Yrotation
            End Site
            {
              OFFSET 1.0 0.0 0.0
            }
          }
        }
      }
      JOINT rCollar
      {
        OFFSET -2.68224 19.2634 -4.8768
        CHANNELS 3 Zrotation Xrotation Yrotation
        JOINT rShldr
        {
          OFFSET -8.77824 -1.95073 1.46304
          CHANNELS 3 Zrotation Xrotation Yrotation
          JOINT rForeArm
          {
            OFFSET -28.1742 -1.7115 0.48768
            CHANNELS 3 Zrotation Xrotation Yrotation
            JOINT rHand
            {
              OFFSET -22.5879 0.773209 7.07136
              CHANNELS 3 Zrotation Xrotation Yrotation
              JOINT rThumb1
              {
                OFFSET -1.2192 -0.487915 3.41376
                CHANNELS 3 Zrotation Xrotation Yrotation
                JOINT rThumb2
                {
                  OFFSET -3.37035 -0.52449 3.41376
                  CHANNELS 3 Zrotation Xrotation Yrotation
                  End Site
                  {
                    OFFSET -1.78271 -1.18214 1.43049
                  }
                }
              }
              JOINT rIndex1
              {
                OFFSET -7.75947 0.938293 5.60832
                CHANNELS 3 Zrotation Xrotation Yrotation
                JOINT rIndex2
                {
                  OFFSET -2.54057 -0.884171 1.56538
                  CHANNELS 3 Zrotation Xrotation Yrotation
                  End Site
                  {
                    OFFSET -1.62519 -0.234802 1.16502
                  }
                }
              }
              JOINT rMid1
              {
                OFFSET -8.24714 1.18213 3.41376
                CHANNELS 3 Zrotation Xrotation Yrotation
                JOINT rMid2
                {
                  OFFSET -3.10165 -0.590103 1.0647
                  CHANNELS 3 Zrotation Xrotation Yrotation
                  End Site
                  {
                    OFFSET -2.48547 -0.328903 0.83742
                  }
                }
              }
              JOINT rRing1
              {
                OFFSET -8.82822 0.546677 1.51678
                CHANNELS 3 Zrotation Xrotation Yrotation
                JOINT rRing2
                {
                  OFFSET -2.60934 -0.819778 -0.0198488
                  CHANNELS 3 Zrotation Xrotation Yrotation
                  End Site
                  {
                    OFFSET -2.33842 -0.294052 0.168128
                  }
                }
              }
              JOINT rPinky1
              {
                OFFSET -8.27202 -0.0477905 -0.4584
                CHANNELS 3 Zrotation Xrotation Yrotation
                JOINT rPinky2
                {
                  OFFSET -1.82734 -0.647385 -0.700984
                  CHANNELS 3 Zrotation Xrotation Yrotation
                  End Site
                  {
                    OFFSET -1.69225 -0.51767 -0.607171
                  }
                }
              }
            }
          }
        }
      }
      JOINT lCollar
      {
        OFFSET 2.68224 19.2634 -4.8768
        CHANNELS 3 Zrotation Xrotation Yrotation
        JOINT lShldr
        {
          OFFSET 8.77824 -1.95073 1.46304
          CHANNELS 3 Zrotation Xrotation Yrotation
          JOINT lForeArm
          {
            OFFSET 28.1742 -1.7115 0.48768
            CHANNELS 3 Zrotation Xrotation Yrotation
            JOINT lHand
            {
              OFFSET 22.5879 0.773209 7.07136
              CHANNELS 3 Zrotation Xrotation Yrotation
              JOINT lThumb1
              {
                OFFSET 1.2192 -0.487915 3.41376
                CHANNELS 3 Zrotation Xrotation Yrotation
                JOINT lThumb2
                {
                  OFFSET 3.37035 -0.52449 3.41376
                  CHANNELS 3 Zrotation Xrotation Yrotation
                  End Site
                  {
                    OFFSET 1.78271 -1.18214 1.43049
                  }
                }
              }
              JOINT lIndex1
              {
                OFFSET 7.75947 0.938293 5.60832
                CHANNELS 3 Zrotation Xrotation Yrotation
                JOINT lIndex2
                {
                  OFFSET 2.54057 -0.884171 1.56538
                  CHANNELS 3 Zrotation Xrotation Yrotation
                  End Site
                  {
                    OFFSET 1.62519 -0.234802 1.16502
                  }
                }
              }
              JOINT lMid1
              {
                OFFSET 8.24714 1.18213 3.41376
                CHANNELS 3 Zrotation Xrotation Yrotation
                JOINT lMid2
                {
                  OFFSET 3.10165 -0.590103 1.0647
                  CHANNELS 3 Zrotation Xrotation Yrotation
                  End Site
                  {
                    OFFSET 2.48547 -0.328903 0.83742
                  }
                }
              }
              JOINT lRing1
              {
                OFFSET 8.82822 0.546677 1.51678
                CHANNELS 3 Zrotation Xrotation Yrotation
                JOINT lRing2
                {
                  OFFSET 2.60934 -0.819778 -0.0198488
                  CHANNELS 3 Zrotation Xrotation Yrotation
                  End Site
                  {
                    OFFSET 2.33842 -0.294052 0.168128
                  }
                }
              }
              JOINT lPinky1
              {
                OFFSET 8.27202 -0.0477905 -0.4584
                CHANNELS 3 Zrotation Xrotation Yrotation
                JOINT lPinky2
                {
                  OFFSET 1.82734 -0.647385 -0.700984
                  CHANNELS 3 Zrotation Xrotation Yrotation
                  End Site
                  {
                    OFFSET 1.69225 -0.51767 -0.607171
                  }
                }
              }
            }
          }
        }
      }
    }
  }
  JOINT rButtock
  {
    OFFSET -8.77824 4.35084 1.2192
    CHANNELS 3 Zrotation Xrotation Yrotation
    JOINT rThigh
    {
      OFFSET 0.0 -1.70687 -2.19456
      CHANNELS 3 Zrotation Xrotation Yrotation
      JOINT rShin
      {
        OFFSET 0.0 -36.8199 0.73152
        CHANNELS 3 Zrotation Xrotation Yrotation
        JOINT rFoot
        {
          OFFSET 0.73152 -45.1104 -5.12064
          CHANNELS 3 Zrotation Xrotation Yrotation
          End Site
          {
            OFFSET -1.1221 -3.69964 12.103
          }
        }
      }
    }
  }
  JOINT lButtock
  {
    OFFSET 8.77824 4.35084 1.2192
    CHANNELS 3 Zrotation Xrotation Yrotation
    JOINT lThigh
    {
      OFFSET 0.0 -1.70687 -2.19456
      CHANNELS 3 Zrotation Xrotation Yrotation
      JOINT lShin
      {
        OFFSET 0.0 -36.8199 0.73152
        CHANNELS 3 Zrotation Xrotation Yrotation
        JOINT lFoot
        {
          OFFSET -0.73152 -45.1104 -5.12064
          CHANNELS 3 Zrotation Xrotation Yrotation
          End Site
          {
            OFFSET 1.1221 -3.69964 12.103
          }
        }
      }
    }
  }
}
MOTION
Frames: 7
Frame Time: 0.00833333
201.735 80.078 -40.3793 361.822 -79.8052 1445.81 -4.16329 0.530026 -1.77243 0.726704 -1.93406 -0.54978 -5.46324 2.22946 -6.37361 13.6317 -26.7518 -8.67067 -0.0 0.0 0.0 -0.0 0.0 0.0 -1.09289e-14 1.22447e-12 2.3815e-13 90.8552 42.3382 -18.9381 -18.5731 -11.3171 35.3185 -0.0263402 -4.62734 -0.651764 7.20027e-10 1.0984e-10 3.71144e-10 1.24264e-09 1.89503e-10 6.43e-10 7.20034e-10 1.0984e-10 3.71134e-10 7.73091 5.47488 0.417314 7.20031e-10 1.09834e-10 3.71147e-10 2.90554 0.965183 0.102902 7.20035e-10 1.09831e-10 3.71146e-10 10.2786 0.731801 0.0259123 7.20019e-10 1.09832e-10 3.71154e-10 2.22167 -0.733487 -0.20892 -1.10752e-14 1.22448e-12 2.3787e-13 -73.6545 20.0618 -1.756 14.3475 -7.24218 -26.2599 0.436779 -18.4885 2.69297 -2.78055e-10 1.5285e-09 8.99035e-10 -4.9868e-10 2.64665e-09 1.55127e-09 -2.78056e-10 1.52851e-09 8.99047e-10 -7.73091 5.47488 -0.417314 -2.78052e-10 1.5285e-09 8.99036e-10 -2.90554 0.965183 -0.102902 -2.78064e-10 1.5285e-09 8.99037e-10 -10.2786 0.731801 -0.0259123 -2.78055e-10 1.5285e-09 8.99033e-10 -2.22167 -0.733487 0.20892 -2.03217e-16 0.0 -3.88251e-19 11.9806 -14.5657 -4.69818 -0.491911 48.699 1.29483 -11.7007 -19.6038 -25.2516 2.03217e-16 0.0 3.88251e-19 -1.10335 -28.8042 20.054 0.496902 46.325 -0.773719 -2.59715 -9.27905 -11.3974
200.77 80.7779 -40.339 361.593 -79.3314 1446.79 -4.29556 -0.163844 -1.8108 0.653701 -2.39568 -0.55855 -5.757 1.75156 -6.56018 13.7078 -27.7356 -8.86113 -0.0 0.0 0.0 -0.0 0.0 0.0 -9.44543e-15 1.96677e-12 3.516e-13 92.3714 43.1006 -21.8851 -18.971 -11.7703 36.237 -0.0292053 -4.8724 -0.686443 1.05267e-09 1.36506e-10 1.23259e-10 1.8164e-09 2.35644e-10 2.13826e-10 1.05268e-09 1.36505e-10 1.2325e-10 7.73091 5.47488 0.417314 1.05268e-09 1.36497e-10 1.23262e-10 2.90554 0.965183 0.102902 1.05268e-09 1.36494e-10 1.23262e-10 10.2786 0.731801 0.0259123 1.05266e-09 1.36495e-10 1.23269e-10 2.22167 -0.733487 -0.20892 -9.58888e-15 1.96678e-12 3.51302e-13 -72.8035 20.2833 -1.31257 15.2655 -8.02234 -28.1369 0.490952 -19.5127 2.8547 -1.96453e-10 2.14677e-09 1.96881e-09 -3.67911e-10 3.718e-09 3.40079e-09 -1.96454e-10 2.14678e-09 1.96882e-09 -7.73091 5.47488 -0.417314 -1.9645e-10 2.14677e-09 1.96881e-09 -2.90554 0.965183 -0.102902 -1.96462e-10 2.14677e-09 1.96882e-09 -10.2786 0.731801 -0.0259123 -1.96454e-10 2.14677e-09 1.96881e-09 -2.22167 -0.733487 0.20892 -2.03217e-16 0.0 -3.88251e-19 11.7288 -14.7687 -5.42828 -0.47223 47.9141 1.24238 -11.1574 -17.9143 -25.5981 2.03217e-16 0.0 3.88251e-19 -0.819609 -27.7147 20.9893 0.444666 44.3721 -0.710772 -2.6525 -7.87804 -12.95
199.785 81.5627 -40.2771 361.021 -78.8862 1448.18 -4.17592 -1.04492 -1.7416 0.507878 -2.77405 -0.539179 -6.07921 1.25839 -6.74853 13.6965 -28.6925 -9.06822 -0.0 0.0 0.0 -0.0 0.0 0.0 -1.2682e-14 1.97449e-12 3.67334e-13 93.9533 43.6971 -25.0127 -19.3688 -12.2399 37.162 -0.0324894 -5.14739 -0.725378 1.31481e-09 1.72156e-10 -1.90252e-11 2.26967e-09 2.97082e-10 -3.2246e-11 1.31482e-09 1.72156e-10 -1.90364e-11 7.73091 5.47488 0.417314 1.31482e-09 1.72148e-10 -1.90235e-11 2.90554 0.965183 0.102902 1.31482e-09 1.72145e-10 -1.90231e-11 10.2786 0.731801 0.0259123 1.31481e-09 1.72146e-10 -1.90182e-11 2.22167 -0.733487 -0.20892 -1.27823e-14 1.9745e-12 3.67039e-13 -71.9595 20.4555 -0.917757 16.1481 -8.82875 -29.9733 0.537934 -20.3558 2.98931 -3.68329e-11 1.75417e-09 1.87309e-09 -8.80262e-11 3.04263e-09 3.238e-09 -3.6835e-11 1.75418e-09 1.8731e-09 -7.73091 5.47488 -0.417314 -3.68297e-11 1.75418e-09 1.87309e-09 -2.90554 0.965183 -0.102902 -3.68419e-11 1.75418e-09 1.87309e-09 -10.2786 0.731801 -0.0259123 -3.68321e-11 1.75418e-09 1.87309e-09 -2.22167 -0.733487 0.20892 -2.03217e-16 0.0 -3.88251e-19 11.4809 -14.8856 -5.90041 -0.44819 46.8987 1.16976 -10.146 -15.7095 -25.4756 2.03217e-16 0.0 3.88251e-19 -0.663946 -26.7839 21.3751 0.396235 42.3951 -0.659466 -2.46096 -6.12878 -14.1511
198.789 82.4067 -40.1944 360.296 -78.5209 1449.77 -3.84057 -2.08032 -1.60361 0.30669 -3.1005 -0.501333 -6.42836 0.747658 -6.93919 13.6135 -29.6517 -9.28796 -0.0 0.0 0.0 -0.0 0.0 0.0 -1.92534e-14 1.56836e-12 3.29212e-13 95.6143 44.1498 -28.3205 -19.7668 -12.7246 38.1059 -0.0363942 -5.45207 -0.768562 1.5853e-09 2.12002e-10 -1.47773e-10 2.73813e-09 3.65641e-10 -2.54644e-10 1.58531e-09 2.12005e-10 -1.47787e-10 7.73091 5.47488 0.417314 1.5853e-09 2.11998e-10 -1.47774e-10 2.90554 0.965183 0.102902 1.58531e-09 2.11996e-10 -1.47773e-10 10.2786 0.731801 0.0259123 1.5853e-09 2.11996e-10 -1.4777e-10 2.22167 -0.733487 -0.20892 -1.92841e-14 1.56835e-12 3.28933e-13 -71.1142 20.5648 -0.531402 17.0103 -9.6626 -31.8347 0.579106 -21.0804 3.10587 2.02736e-10 7.55297e-10 1.18947e-09 3.38102e-10 1.31994e-09 2.06065e-09 2.02731e-10 7.55302e-10 1.18947e-09 -7.73091 5.47488 -0.417314 2.02738e-10 7.55301e-10 1.18947e-09 -2.90554 0.965183 -0.102902 2.02727e-10 7.55301e-10 1.18947e-09 -10.2786 0.731801 -0.0259123 2.02738e-10 7.55301e-10 1.18947e-09 -2.22167 -0.733487 0.20892 -2.03217e-16 0.0 -3.88251e-19 11.2641 -14.9113 -6.15525 -0.421886 45.6163 1.08237 -8.82694 -13.0917 -25.0555 2.03217e-16 0.0 3.88251e-19 -0.540207 -25.9837 21.3935 0.349507 40.3757 -0.61643 -2.04961 -4.03305 -15.1178
197.802 83.2895 -40.0979 359.562 -78.2552 1451.41 -3.39655 -3.14526 -1.37553 0.0845212 -3.39465 -0.440618 -6.77597 0.193661 -7.12512 13.5292 -30.5793 -9.49883 -0.0 0.0 0.0 -0.0 0.0 0.0 -2.01584e-14 1.02861e-12 2.57745e-13 97.2706 44.5128 -31.6427 -20.1474 -13.201 39.0309 -0.0404048 -5.7384 -0.809198 1.59772e-09 2.18502e-10 -2.25915e-10 2.76075e-09 3.76766e-10 -3.89732e-10 1.59773e-09 2.18507e-10 -2.25932e-10 7.73091 5.47488 0.417314 1.59772e-09 2.18501e-10 -2.2592e-10 2.90554 0.965183 0.102902 1.59772e-09 2.185e-10 -2.25918e-10 10.2786 0.731801 0.0259123 1.59772e-09 2.185e-10 -2.25916e-10 2.22167 -0.733487 -0.20892 -2.01228e-14 1.02861e-12 2.57484e-13 -70.2556 20.5367 -0.111135 17.8515 -10.5275 -33.6993 0.617812 -21.746 3.21375 3.51425e-10 -1.15116e-10 4.72875e-10 6.06116e-10 -1.84283e-10 8.24555e-10 3.51418e-10 -1.15114e-10 4.72878e-10 -7.73091 5.47488 -0.417314 3.51427e-10 -1.15114e-10 4.72878e-10 -2.90554 0.965183 -0.102902 3.51416e-10 -1.15113e-10 4.72875e-10 -10.2786 0.731801 -0.0259123 3.51429e-10 -1.15112e-10 4.72872e-10 -2.22167 -0.733487 0.20892 -2.03217e-16 0.0 -3.88251e-19 11.0518 -14.9733 -6.30421 -0.40055 44.3253 0.992587 -7.34755 -10.1534 -24.5098 2.03217e-16 0.0 3.88251e-19 -0.41276 -25.3747 21.1669 0.308071 38.4749 -0.578422 -1.44553 -1.73034 -15.6134
196.837 84.2039 -40.0056 358.761 -78.0892 1453.14 -2.95074 -4.11484 -1.03561 -0.124154 -3.6761 -0.352636 -7.09359 -0.429293 -7.29941 13.5165 -31.4422 -9.67785 -0.0 0.0 0.0 -0.0 0.0 0.0 -6.39543e-15 6.35519e-13 1.7344e-13 98.8464 44.8606 -34.8251 -20.496 -13.6487 39.8982 -0.0437405 -5.95833 -0.84045 1.08564e-09 1.54114e-10 -2.16386e-10 1.87649e-09 2.65901e-10 -3.73874e-10 1.08565e-09 1.5412e-10 -2.16405e-10 7.73091 5.47488 0.417314 1.08564e-09 1.54115e-10 -2.16392e-10 2.90554 0.965183 0.102902 1.08565e-09 1.54114e-10 -2.16391e-10 10.2786 0.731801 0.0259123 1.08564e-09 1.54113e-10 -2.16389e-10 2.22167 -0.733487 -0.20892 -6.32715e-15 6.3551e-13 1.73191e-13 -69.3689 20.2963 0.38444 18.6719 -11.4278 -35.5457 0.658475 -22.4121 3.32281 2.38408e-10 -1.22317e-10 2.78238e-10 4.1166e-10 -2.04236e-10 4.85493e-10 2.384e-10 -1.22318e-10 2.78241e-10 -7.73091 5.47488 -0.417314 2.3841e-10 -1.22316e-10 2.78241e-10 -2.90554 0.965183 -0.102902 2.384e-10 -1.22316e-10 2.78238e-10 -10.2786 0.731801 -0.0259123 2.38413e-10 -1.22314e-10 2.78235e-10 -2.22167 -0.733487 0.20892 -2.03217e-16 0.0 -3.88251e-19 10.8153 -15.1982 -6.45934 -0.387871 43.2845 0.909845 -5.82582 -6.9992 -23.9938 2.03217e-16 0.0 3.88251e-19 -0.257684 -25.0195 20.8119 0.275549 36.8535 -0.54206 -0.72969 0.656662 -15.3968
195.905 85.1412 -39.9347 357.708 -78.0292 1455.13 -2.50779 -5.02786 -0.545398 -0.313209 -3.94404 -0.228109 -7.36653 -1.15704 -7.45615 13.5575 -32.1792 -9.82296 -0.0 0.0 0.0 -0.0 0.0 0.0 2.55479e-14 3.91415e-13 6.07489e-14 100.39 45.242 -37.9473 -20.8175 -14.075 40.7054 -0.0456195 -6.07622 -0.857217 -2.87884e-10 -1.2308e-11 -6.29219e-11 -4.97147e-10 -2.04161e-11 -1.09758e-10 -2.87871e-10 -1.23032e-11 -6.29421e-11 7.73091 5.47488 0.417314 -2.87883e-10 -1.2307e-11 -6.2929e-11 2.90554 0.965183 0.102902 -2.87876e-10 -1.23075e-11 -6.29271e-11 10.2786 0.731801 0.0259123 -2.87884e-10 -1.23079e-11 -6.29239e-11 2.22167 -0.733487 -0.20892 2.55962e-14 3.91407e-13 6.05004e-14 -68.4362 19.8485 0.93613 19.468 -12.3595 -37.3871 0.70173 -23.0855 3.43432 -3.38847e-10 1.32497e-09 9.41044e-10 -6.02379e-10 2.27692e-09 1.61966e-09 -3.38854e-10 1.32497e-09 9.41047e-10 -7.73091 5.47488 -0.417314 -3.38846e-10 1.32497e-09 9.41047e-10 -2.90554 0.965183 -0.102902 -3.38854e-10 1.32497e-09 9.41044e-10 -10.2786 0.731801 -0.0259123 -3.38842e-10 1.32498e-09 9.41041e-10 -2.22167 -0.733487 0.20892 -2.03217e-16 0.0 -3.88251e-19 10.514 -15.6332 -6.5955 -0.380102 42.4931 0.829759 -4.21392 -3.50793 -23.5106 2.03217e-16 0.0 3.88251e-19 -0.10343 -24.9586 20.3298 0.251051 35.5033 -0.506978 0.0536526 3.32317 -14.3236
